<svg xmlns="http://www.w3.org/2000/svg" width="1000" height="620" viewBox="0 0 1000 620" role="img"><title>Complement conflict 7: 0xA6 versus 0xA9</title><rect width="100%" height="100%" fill="#f6f8fb"/><g font-family="Segoe UI, Arial, sans-serif"><text x="24" y="31" font-size="23" fill="#1c344d" font-weight="700">COMPLEMENT PAIR 07 / 07</text><text x="976" y="29" font-size="12" fill="#516276" text-anchor="end">family-03 / 3 D4 families</text><text x="24" y="54" font-size="14" fill="#516276" >Identical edge hits; opposite corner labels; different endpoint pairing.</text><rect x="16" y="70" width="468" height="497" rx="13" fill="white" stroke="#dae4ed"/><text x="34" y="96" font-size="18" fill="#c66322" font-weight="700">A  /  face 0xA6</text><text x="468" y="94" font-size="12" fill="#516276" text-anchor="end">template 3d</text><polygon points="131.66,260.18 277.66,260.18 362.34,309.82 216.34,309.82" fill="#e4f0fa" fill-opacity=".65" stroke="none"/><polyline points="131.66,260.18 277.66,260.18" fill="none" stroke="#9eafc0" stroke-width="1.3"/><polyline points="216.34,309.82 362.34,309.82" fill="none" stroke="#9eafc0" stroke-width="1.3"/><polyline points="131.66,114.18 277.66,114.18" fill="none" stroke="#9eafc0" stroke-width="1.3"/><polyline points="216.34,163.82 362.34,163.82" fill="none" stroke="#9eafc0" stroke-width="1.3"/><polyline points="131.66,260.18 216.34,309.82" fill="none" stroke="#9eafc0" stroke-width="1.3"/><polyline points="277.66,260.18 362.34,309.82" fill="none" stroke="#9eafc0" stroke-width="1.3"/><polyline points="131.66,114.18 216.34,163.82" fill="none" stroke="#9eafc0" stroke-width="1.3"/><polyline points="277.66,114.18 362.34,163.82" fill="none" stroke="#9eafc0" stroke-width="1.3"/><polyline points="131.66,260.18 131.66,114.18" fill="none" stroke="#9eafc0" stroke-width="1.3"/><polyline points="277.66,260.18 277.66,114.18" fill="none" stroke="#9eafc0" stroke-width="1.3"/><polyline points="216.34,309.82 216.34,163.82" fill="none" stroke="#9eafc0" stroke-width="1.3"/><polyline points="362.34,309.82 362.34,163.82" fill="none" stroke="#9eafc0" stroke-width="1.3"/><polyline points="204.66,260.18 204.66,114.18 158.76,130.06 158.76,276.06 204.66,260.18" fill="none" stroke="#a4b7c9" stroke-width="3.1" stroke-linejoin="round"/><polyline points="289.34,309.82 289.34,163.82 189.24,147.94 189.24,293.94 289.34,309.82" fill="none" stroke="#a4b7c9" stroke-width="3.1" stroke-linejoin="round"/><polyline points="304.76,276.06 304.76,130.06 290.80,139.00 335.24,147.94 335.24,293.94 290.80,285.00 304.76,276.06" fill="none" stroke="#a4b7c9" stroke-width="3.1" stroke-linejoin="round"/><circle cx="204.66" cy="260.18" r="3.6" fill="#fff" stroke="#a4b7c9" stroke-width="1.2"/><circle cx="289.34" cy="309.82" r="3.6" fill="#fff" stroke="#a4b7c9" stroke-width="1.2"/><circle cx="204.66" cy="114.18" r="3.6" fill="#fff" stroke="#a4b7c9" stroke-width="1.2"/><circle cx="289.34" cy="163.82" r="3.6" fill="#fff" stroke="#a4b7c9" stroke-width="1.2"/><circle cx="158.76" cy="276.06" r="3.6" fill="#fff" stroke="#a4b7c9" stroke-width="1.2"/><circle cx="189.24" cy="293.94" r="3.6" fill="#fff" stroke="#a4b7c9" stroke-width="1.2"/><circle cx="304.76" cy="276.06" r="3.6" fill="#fff" stroke="#a4b7c9" stroke-width="1.2"/><circle cx="335.24" cy="293.94" r="3.6" fill="#fff" stroke="#a4b7c9" stroke-width="1.2"/><circle cx="158.76" cy="130.06" r="3.6" fill="#fff" stroke="#a4b7c9" stroke-width="1.2"/><circle cx="189.24" cy="147.94" r="3.6" fill="#fff" stroke="#a4b7c9" stroke-width="1.2"/><circle cx="304.76" cy="130.06" r="3.6" fill="#fff" stroke="#a4b7c9" stroke-width="1.2"/><circle cx="335.24" cy="147.94" r="3.6" fill="#fff" stroke="#a4b7c9" stroke-width="1.2"/><circle cx="290.80" cy="285.00" r="3.6" fill="#f5bf3e" stroke="#ae7705" stroke-width="1.2"/><circle cx="290.80" cy="139.00" r="3.6" fill="#f5bf3e" stroke="#ae7705" stroke-width="1.2"/><circle cx="131.66" cy="260.18" r="5" fill="white" stroke="#20364e" stroke-width="1.6"/><circle cx="277.66" cy="260.18" r="5" fill="#20364e" stroke="#20364e" stroke-width="1.6"/><circle cx="216.34" cy="309.82" r="5" fill="white" stroke="#20364e" stroke-width="1.6"/><circle cx="362.34" cy="309.82" r="5" fill="#20364e" stroke="#20364e" stroke-width="1.6"/><circle cx="131.66" cy="114.18" r="5" fill="white" stroke="#20364e" stroke-width="1.6"/><circle cx="277.66" cy="114.18" r="5" fill="#20364e" stroke="#20364e" stroke-width="1.6"/><circle cx="216.34" cy="163.82" r="5" fill="white" stroke="#20364e" stroke-width="1.6"/><circle cx="362.34" cy="163.82" r="5" fill="#20364e" stroke="#20364e" stroke-width="1.6"/><polyline points="304.76,276.06 290.80,285.00 335.24,293.94" fill="none" stroke="#c66322" stroke-width="4" stroke-linejoin="round"/><circle cx="304.76" cy="276.06" r="3.8" fill="white" stroke="#c66322" stroke-width="1.4"/><circle cx="290.80" cy="285.00" r="3.8" fill="#f5bf3e" stroke="#c66322" stroke-width="1.4"/><circle cx="335.24" cy="293.94" r="3.8" fill="white" stroke="#c66322" stroke-width="1.4"/><polyline points="289.34,309.82 189.24,293.94" fill="none" stroke="#c66322" stroke-width="4" stroke-linejoin="round"/><circle cx="289.34" cy="309.82" r="3.8" fill="white" stroke="#c66322" stroke-width="1.4"/><circle cx="189.24" cy="293.94" r="3.8" fill="white" stroke="#c66322" stroke-width="1.4"/><polyline points="158.76,276.06 204.66,260.18" fill="none" stroke="#c66322" stroke-width="4" stroke-linejoin="round"/><circle cx="158.76" cy="276.06" r="3.8" fill="white" stroke="#c66322" stroke-width="1.4"/><circle cx="204.66" cy="260.18" r="3.8" fill="white" stroke="#c66322" stroke-width="1.4"/><text x="247" y="326" font-size="11" fill="#516276" text-anchor="middle">3 cube boundary loops; z=0 face highlighted</text><line x1="32" y1="340" x2="468" y2="340" stroke="#e2e9ef"/><text x="34" y="360" font-size="11" fill="#516b80" font-weight="700">SOURCE FACE  /  SAME FIXED EDGE-SLOT LABELS</text><rect x="74" y="393" width="130" height="130" fill="#f5f9fd" stroke="#98aabd" stroke-width="1.3"/><polyline points="204.00,481.40 178.00,458.00 204.00,434.60" fill="none" stroke="#c66322" stroke-width="3.3" stroke-linejoin="round"/><circle cx="178.00" cy="458.00" r="4" fill="#f5bf3e" stroke="#ad7705" stroke-width="1.2"/><text x="185.0" y="451.0" font-size="10" fill="#936303" >Y</text><polyline points="139.00,393.00 74.00,434.60" fill="none" stroke="#c66322" stroke-width="3.3" stroke-linejoin="round"/><polyline points="74.00,481.40 139.00,523.00" fill="none" stroke="#c66322" stroke-width="3.3" stroke-linejoin="round"/><circle cx="139.00" cy="523.00" r="4" fill="white" stroke="#c66322" stroke-width="1.5"/><text x="139.0" y="543.0" font-size="10" fill="#304b65" text-anchor="middle">e0:0</text><circle cx="204.00" cy="481.40" r="4" fill="white" stroke="#c66322" stroke-width="1.5"/><text x="216.0" y="485.4" font-size="10" fill="#304b65" text-anchor="start">e1:0</text><circle cx="204.00" cy="434.60" r="4" fill="white" stroke="#c66322" stroke-width="1.5"/><text x="216.0" y="438.6" font-size="10" fill="#304b65" text-anchor="start">e1:1</text><circle cx="139.00" cy="393.00" r="4" fill="white" stroke="#c66322" stroke-width="1.5"/><text x="139.0" y="382.0" font-size="10" fill="#304b65" text-anchor="middle">e2:0</text><circle cx="74.00" cy="434.60" r="4" fill="white" stroke="#c66322" stroke-width="1.5"/><text x="62.0" y="438.6" font-size="10" fill="#304b65" text-anchor="end">e3:0</text><circle cx="74.00" cy="481.40" r="4" fill="white" stroke="#c66322" stroke-width="1.5"/><text x="62.0" y="485.4" font-size="10" fill="#304b65" text-anchor="end">e3:1</text><circle cx="74.00" cy="523.00" r="5" fill="white" stroke="#20364e" stroke-width="1.5"/><text x="64" y="539" font-size="10" fill="#516276" text-anchor="end">c0</text><circle cx="204.00" cy="523.00" r="5" fill="#20364e" stroke="#20364e" stroke-width="1.5"/><text x="214" y="539" font-size="10" fill="#516276" text-anchor="start">c1</text><circle cx="204.00" cy="393.00" r="5" fill="#20364e" stroke="#20364e" stroke-width="1.5"/><text x="214" y="383" font-size="10" fill="#516276" text-anchor="start">c2</text><circle cx="74.00" cy="393.00" r="5" fill="white" stroke="#20364e" stroke-width="1.5"/><text x="64" y="383" font-size="10" fill="#516276" text-anchor="end">c3</text><text x="276" y="396" font-size="12" fill="#20364e" font-weight="700">Chosen connections</text><text x="276" y="420" font-size="12" fill="#c66322" >e0:0 -- e3:1</text><text x="276" y="455" font-size="12" fill="#c66322" >e1:0 -- e1:1</text><text x="276" y="469" font-size="10" fill="#987114" >via interior turn Y</text><text x="276" y="490" font-size="12" fill="#c66322" >e2:0 -- e3:0</text><text x="276" y="542" font-size="10" fill="#516276" >filled corner = inside</text><text x="276" y="555" font-size="10" fill="#516276" >hollow corner = outside</text><rect x="516" y="70" width="468" height="497" rx="13" fill="white" stroke="#dae4ed"/><text x="534" y="96" font-size="18" fill="#256abc" font-weight="700">B  /  face 0xA9</text><text x="968" y="94" font-size="12" fill="#516276" text-anchor="end">template 3d</text><polygon points="631.66,260.18 777.66,260.18 862.34,309.82 716.34,309.82" fill="#e4f0fa" fill-opacity=".65" stroke="none"/><polyline points="631.66,260.18 777.66,260.18" fill="none" stroke="#9eafc0" stroke-width="1.3"/><polyline points="716.34,309.82 862.34,309.82" fill="none" stroke="#9eafc0" stroke-width="1.3"/><polyline points="631.66,114.18 777.66,114.18" fill="none" stroke="#9eafc0" stroke-width="1.3"/><polyline points="716.34,163.82 862.34,163.82" fill="none" stroke="#9eafc0" stroke-width="1.3"/><polyline points="631.66,260.18 716.34,309.82" fill="none" stroke="#9eafc0" stroke-width="1.3"/><polyline points="777.66,260.18 862.34,309.82" fill="none" stroke="#9eafc0" stroke-width="1.3"/><polyline points="631.66,114.18 716.34,163.82" fill="none" stroke="#9eafc0" stroke-width="1.3"/><polyline points="777.66,114.18 862.34,163.82" fill="none" stroke="#9eafc0" stroke-width="1.3"/><polyline points="631.66,260.18 631.66,114.18" fill="none" stroke="#9eafc0" stroke-width="1.3"/><polyline points="777.66,260.18 777.66,114.18" fill="none" stroke="#9eafc0" stroke-width="1.3"/><polyline points="716.34,309.82 716.34,163.82" fill="none" stroke="#9eafc0" stroke-width="1.3"/><polyline points="862.34,309.82 862.34,163.82" fill="none" stroke="#9eafc0" stroke-width="1.3"/><polyline points="704.66,260.18 704.66,114.18 804.76,130.06 804.76,276.06 704.66,260.18" fill="none" stroke="#a4b7c9" stroke-width="3.1" stroke-linejoin="round"/><polyline points="789.34,309.82 789.34,163.82 835.24,147.94 835.24,293.94 789.34,309.82" fill="none" stroke="#a4b7c9" stroke-width="3.1" stroke-linejoin="round"/><polyline points="658.76,276.06 658.76,130.06 703.20,139.00 689.24,147.94 689.24,293.94 703.20,285.00 658.76,276.06" fill="none" stroke="#a4b7c9" stroke-width="3.1" stroke-linejoin="round"/><circle cx="704.66" cy="260.18" r="3.6" fill="#fff" stroke="#a4b7c9" stroke-width="1.2"/><circle cx="789.34" cy="309.82" r="3.6" fill="#fff" stroke="#a4b7c9" stroke-width="1.2"/><circle cx="704.66" cy="114.18" r="3.6" fill="#fff" stroke="#a4b7c9" stroke-width="1.2"/><circle cx="789.34" cy="163.82" r="3.6" fill="#fff" stroke="#a4b7c9" stroke-width="1.2"/><circle cx="658.76" cy="276.06" r="3.6" fill="#fff" stroke="#a4b7c9" stroke-width="1.2"/><circle cx="689.24" cy="293.94" r="3.6" fill="#fff" stroke="#a4b7c9" stroke-width="1.2"/><circle cx="804.76" cy="276.06" r="3.6" fill="#fff" stroke="#a4b7c9" stroke-width="1.2"/><circle cx="835.24" cy="293.94" r="3.6" fill="#fff" stroke="#a4b7c9" stroke-width="1.2"/><circle cx="658.76" cy="130.06" r="3.6" fill="#fff" stroke="#a4b7c9" stroke-width="1.2"/><circle cx="689.24" cy="147.94" r="3.6" fill="#fff" stroke="#a4b7c9" stroke-width="1.2"/><circle cx="804.76" cy="130.06" r="3.6" fill="#fff" stroke="#a4b7c9" stroke-width="1.2"/><circle cx="835.24" cy="147.94" r="3.6" fill="#fff" stroke="#a4b7c9" stroke-width="1.2"/><circle cx="703.20" cy="285.00" r="3.6" fill="#f5bf3e" stroke="#ae7705" stroke-width="1.2"/><circle cx="703.20" cy="139.00" r="3.6" fill="#f5bf3e" stroke="#ae7705" stroke-width="1.2"/><circle cx="631.66" cy="260.18" r="5" fill="#20364e" stroke="#20364e" stroke-width="1.6"/><circle cx="777.66" cy="260.18" r="5" fill="white" stroke="#20364e" stroke-width="1.6"/><circle cx="716.34" cy="309.82" r="5" fill="#20364e" stroke="#20364e" stroke-width="1.6"/><circle cx="862.34" cy="309.82" r="5" fill="white" stroke="#20364e" stroke-width="1.6"/><circle cx="631.66" cy="114.18" r="5" fill="#20364e" stroke="#20364e" stroke-width="1.6"/><circle cx="777.66" cy="114.18" r="5" fill="white" stroke="#20364e" stroke-width="1.6"/><circle cx="716.34" cy="163.82" r="5" fill="#20364e" stroke="#20364e" stroke-width="1.6"/><circle cx="862.34" cy="163.82" r="5" fill="white" stroke="#20364e" stroke-width="1.6"/><polyline points="704.66,260.18 804.76,276.06" fill="none" stroke="#256abc" stroke-width="4" stroke-linejoin="round"/><circle cx="704.66" cy="260.18" r="3.8" fill="white" stroke="#256abc" stroke-width="1.4"/><circle cx="804.76" cy="276.06" r="3.8" fill="white" stroke="#256abc" stroke-width="1.4"/><polyline points="835.24,293.94 789.34,309.82" fill="none" stroke="#256abc" stroke-width="4" stroke-linejoin="round"/><circle cx="835.24" cy="293.94" r="3.8" fill="white" stroke="#256abc" stroke-width="1.4"/><circle cx="789.34" cy="309.82" r="3.8" fill="white" stroke="#256abc" stroke-width="1.4"/><polyline points="689.24,293.94 703.20,285.00 658.76,276.06" fill="none" stroke="#256abc" stroke-width="4" stroke-linejoin="round"/><circle cx="689.24" cy="293.94" r="3.8" fill="white" stroke="#256abc" stroke-width="1.4"/><circle cx="703.20" cy="285.00" r="3.8" fill="#f5bf3e" stroke="#256abc" stroke-width="1.4"/><circle cx="658.76" cy="276.06" r="3.8" fill="white" stroke="#256abc" stroke-width="1.4"/><text x="747" y="326" font-size="11" fill="#516276" text-anchor="middle">3 cube boundary loops; z=0 face highlighted</text><line x1="532" y1="340" x2="968" y2="340" stroke="#e2e9ef"/><text x="534" y="360" font-size="11" fill="#516b80" font-weight="700">SOURCE FACE  /  SAME FIXED EDGE-SLOT LABELS</text><rect x="574" y="393" width="130" height="130" fill="#f5f9fd" stroke="#98aabd" stroke-width="1.3"/><polyline points="639.00,523.00 704.00,481.40" fill="none" stroke="#256abc" stroke-width="3.3" stroke-linejoin="round"/><polyline points="704.00,434.60 639.00,393.00" fill="none" stroke="#256abc" stroke-width="3.3" stroke-linejoin="round"/><polyline points="574.00,434.60 600.00,458.00 574.00,481.40" fill="none" stroke="#256abc" stroke-width="3.3" stroke-linejoin="round"/><circle cx="600.00" cy="458.00" r="4" fill="#f5bf3e" stroke="#ad7705" stroke-width="1.2"/><text x="607.0" y="451.0" font-size="10" fill="#936303" >Y</text><circle cx="639.00" cy="523.00" r="4" fill="white" stroke="#256abc" stroke-width="1.5"/><text x="639.0" y="543.0" font-size="10" fill="#304b65" text-anchor="middle">e0:0</text><circle cx="704.00" cy="481.40" r="4" fill="white" stroke="#256abc" stroke-width="1.5"/><text x="716.0" y="485.4" font-size="10" fill="#304b65" text-anchor="start">e1:0</text><circle cx="704.00" cy="434.60" r="4" fill="white" stroke="#256abc" stroke-width="1.5"/><text x="716.0" y="438.6" font-size="10" fill="#304b65" text-anchor="start">e1:1</text><circle cx="639.00" cy="393.00" r="4" fill="white" stroke="#256abc" stroke-width="1.5"/><text x="639.0" y="382.0" font-size="10" fill="#304b65" text-anchor="middle">e2:0</text><circle cx="574.00" cy="434.60" r="4" fill="white" stroke="#256abc" stroke-width="1.5"/><text x="562.0" y="438.6" font-size="10" fill="#304b65" text-anchor="end">e3:0</text><circle cx="574.00" cy="481.40" r="4" fill="white" stroke="#256abc" stroke-width="1.5"/><text x="562.0" y="485.4" font-size="10" fill="#304b65" text-anchor="end">e3:1</text><circle cx="574.00" cy="523.00" r="5" fill="#20364e" stroke="#20364e" stroke-width="1.5"/><text x="564" y="539" font-size="10" fill="#516276" text-anchor="end">c0</text><circle cx="704.00" cy="523.00" r="5" fill="white" stroke="#20364e" stroke-width="1.5"/><text x="714" y="539" font-size="10" fill="#516276" text-anchor="start">c1</text><circle cx="704.00" cy="393.00" r="5" fill="white" stroke="#20364e" stroke-width="1.5"/><text x="714" y="383" font-size="10" fill="#516276" text-anchor="start">c2</text><circle cx="574.00" cy="393.00" r="5" fill="#20364e" stroke="#20364e" stroke-width="1.5"/><text x="564" y="383" font-size="10" fill="#516276" text-anchor="end">c3</text><text x="776" y="396" font-size="12" fill="#20364e" font-weight="700">Chosen connections</text><text x="776" y="420" font-size="12" fill="#256abc" >e0:0 -- e1:0</text><text x="776" y="455" font-size="12" fill="#256abc" >e1:1 -- e2:0</text><text x="776" y="490" font-size="12" fill="#256abc" >e3:0 -- e3:1</text><text x="776" y="504" font-size="10" fill="#987114" >via interior turn Y</text><text x="776" y="542" font-size="10" fill="#516276" >filled corner = inside</text><text x="776" y="555" font-size="10" fill="#516276" >hollow corner = outside</text><text x="24" y="588" font-size="12" fill="#516276" >Adjacent corners; two double-hit edges. Counts: [1, 2, 1, 2].</text><text x="24" y="609" font-size="11" fill="#516276" >Separate complemented inputs; illustrative coordinates and turns. Boundary connectivity only, no GT or triangle reconstruction.</text></g></svg>
